<svg width="392" height="131" viewBox="0 0 392 131" fill="none" xmlns="http://www.w3.org/2000/svg">
<path d="M17.3906 50H6.66602L6.73242 41.0352H17.3906C19.6042 41.0352 21.4746 40.5039 23.002 39.4414C24.5514 38.3789 25.7246 36.7962 26.5215 34.6934C27.3405 32.5684 27.75 29.9564 27.75 26.8574V24.7656C27.75 22.4414 27.5176 20.4049 27.0527 18.6562C26.61 16.8854 25.946 15.4134 25.0605 14.2402C24.1751 13.0449 23.0684 12.1484 21.7402 11.5508C20.4342 10.9531 18.929 10.6543 17.2246 10.6543H6.4668V1.65625H17.2246C20.5007 1.65625 23.5 2.2207 26.2227 3.34961C28.9674 4.45638 31.3359 6.05013 33.3281 8.13086C35.3424 10.1895 36.8919 12.6354 37.9766 15.4688C39.0833 18.2799 39.6367 21.401 39.6367 24.832V26.8574C39.6367 30.2663 39.0833 33.3874 37.9766 36.2207C36.8919 39.054 35.3535 41.5 33.3613 43.5586C31.3691 45.6172 29.0117 47.2109 26.2891 48.3398C23.5885 49.4466 20.6224 50 17.3906 50ZM13.3398 1.65625V50H1.68555V1.65625H13.3398ZM45.7129 1.65625H64.7383C68.457 1.65625 71.6888 2.20964 74.4336 3.31641C77.1784 4.42318 79.2923 6.0612 80.7754 8.23047C82.2806 10.3997 83.0332 13.0781 83.0332 16.2656C83.0332 19.0326 82.6016 21.3457 81.7383 23.2051C80.875 25.0645 79.6686 26.6029 78.1191 27.8203C76.5918 29.0156 74.8099 30.0007 72.7734 30.7754L68.9551 32.9336H52.9844L52.918 23.9355H64.7383C66.2214 23.9355 67.4499 23.6699 68.4238 23.1387C69.3978 22.6074 70.1283 21.8548 70.6152 20.8809C71.1243 19.8848 71.3789 18.7005 71.3789 17.3281C71.3789 15.9336 71.1243 14.7383 70.6152 13.7422C70.1061 12.7461 69.3535 11.9824 68.3574 11.4512C67.3835 10.9199 66.1771 10.6543 64.7383 10.6543H57.3672V50H45.7129V1.65625ZM72.1758 50L61.4844 28.6172L73.8359 28.5508L84.6602 49.502V50H72.1758ZM102.457 1.65625V50H90.8359V1.65625H102.457ZM151.033 1.65625V50H139.412L122.312 19.918V50H110.658V1.65625H122.312L139.412 31.7383V1.65625H151.033ZM170.059 1.65625V50H158.404V1.65625H170.059ZM198.912 1.65625L180.186 26.1602L169.229 38.1465L167.104 27.4551L174.109 16.8301L184.535 1.65625H198.912ZM185.133 50L172.648 28.2188L181.713 21.5449L198.912 50H185.133ZM227.6 1.65625L236.498 22.6406L245.43 1.65625H257.98L242.441 32.6348V50H230.588V32.6348L215.016 1.65625H227.6ZM301.443 24.8652V26.8242C301.443 30.5208 300.923 33.8411 299.883 36.7852C298.865 39.707 297.415 42.2083 295.533 44.2891C293.652 46.3477 291.427 47.9303 288.859 49.0371C286.292 50.1217 283.458 50.6641 280.359 50.6641C277.238 50.6641 274.383 50.1217 271.793 49.0371C269.225 47.9303 266.99 46.3477 265.086 44.2891C263.204 42.2083 261.743 39.707 260.703 36.7852C259.685 33.8411 259.176 30.5208 259.176 26.8242V24.8652C259.176 21.1686 259.685 17.8483 260.703 14.9043C261.743 11.9603 263.193 9.45898 265.053 7.40039C266.934 5.31966 269.159 3.73698 271.727 2.65234C274.316 1.54557 277.172 0.992188 280.293 0.992188C283.392 0.992188 286.225 1.54557 288.793 2.65234C291.383 3.73698 293.618 5.31966 295.5 7.40039C297.382 9.45898 298.842 11.9603 299.883 14.9043C300.923 17.8483 301.443 21.1686 301.443 24.8652ZM289.623 26.8242V24.7988C289.623 22.4082 289.413 20.3053 288.992 18.4902C288.594 16.653 287.996 15.1146 287.199 13.875C286.402 12.6354 285.417 11.7057 284.244 11.0859C283.093 10.444 281.776 10.123 280.293 10.123C278.743 10.123 277.393 10.444 276.242 11.0859C275.091 11.7057 274.128 12.6354 273.354 13.875C272.579 15.1146 271.992 16.653 271.594 18.4902C271.217 20.3053 271.029 22.4082 271.029 24.7988V26.8242C271.029 29.1927 271.217 31.2956 271.594 33.1328C271.992 34.9479 272.579 36.4863 273.354 37.748C274.15 39.0098 275.124 39.9616 276.275 40.6035C277.449 41.2454 278.81 41.5664 280.359 41.5664C281.842 41.5664 283.16 41.2454 284.311 40.6035C285.462 39.9616 286.424 39.0098 287.199 37.748C287.996 36.4863 288.594 34.9479 288.992 33.1328C289.413 31.2956 289.623 29.1927 289.623 26.8242ZM333.717 1.65625H345.371V33.2324C345.371 36.9954 344.585 40.1829 343.014 42.7949C341.442 45.3848 339.24 47.3438 336.406 48.6719C333.573 50 330.242 50.6641 326.412 50.6641C322.627 50.6641 319.296 50 316.418 48.6719C313.562 47.3438 311.327 45.3848 309.711 42.7949C308.117 40.1829 307.32 36.9954 307.32 33.2324V1.65625H319.008V33.2324C319.008 35.2246 319.296 36.8516 319.871 38.1133C320.447 39.3529 321.288 40.2604 322.395 40.8359C323.501 41.4115 324.84 41.6992 326.412 41.6992C328.006 41.6992 329.345 41.4115 330.43 40.8359C331.514 40.2604 332.333 39.3529 332.887 38.1133C333.44 36.8516 333.717 35.2246 333.717 33.2324V1.65625ZM352.709 1.65625H371.734C375.453 1.65625 378.685 2.20964 381.43 3.31641C384.174 4.42318 386.288 6.0612 387.771 8.23047C389.277 10.3997 390.029 13.0781 390.029 16.2656C390.029 19.0326 389.598 21.3457 388.734 23.2051C387.871 25.0645 386.665 26.6029 385.115 27.8203C383.588 29.0156 381.806 30.0007 379.77 30.7754L375.951 32.9336H359.98L359.914 23.9355H371.734C373.217 23.9355 374.446 23.6699 375.42 23.1387C376.394 22.6074 377.124 21.8548 377.611 20.8809C378.12 19.8848 378.375 18.7005 378.375 17.3281C378.375 15.9336 378.12 14.7383 377.611 13.7422C377.102 12.7461 376.35 11.9824 375.354 11.4512C374.38 10.9199 373.173 10.6543 371.734 10.6543H364.363V50H352.709V1.65625ZM379.172 50L368.48 28.6172L380.832 28.5508L391.656 49.502V50H379.172Z" fill="black"/>
<path d="M29.1777 113.631H40.7988C40.6439 116.995 39.7363 119.962 38.0762 122.529C36.416 125.097 34.1139 127.1 31.1699 128.539C28.248 129.956 24.7949 130.664 20.8105 130.664C17.5788 130.664 14.6901 130.122 12.1445 129.037C9.62109 127.952 7.47396 126.392 5.70312 124.355C3.95443 122.319 2.61523 119.851 1.68555 116.951C0.777995 114.051 0.324219 110.786 0.324219 107.156V104.533C0.324219 100.903 0.80013 97.638 1.75195 94.7383C2.72591 91.8164 4.09831 89.3372 5.86914 87.3008C7.66211 85.2422 9.80924 83.6706 12.3105 82.5859C14.8118 81.5013 17.5898 80.959 20.6445 80.959C24.8503 80.959 28.403 81.7116 31.3027 83.2168C34.2025 84.722 36.4492 86.7917 38.043 89.4258C39.6367 92.0378 40.5775 95.015 40.8652 98.3574H29.2441C29.1999 96.5423 28.89 95.026 28.3145 93.8086C27.7389 92.569 26.8314 91.6393 25.5918 91.0195C24.3522 90.3997 22.7031 90.0898 20.6445 90.0898C19.2057 90.0898 17.9551 90.3555 16.8926 90.8867C15.8301 91.418 14.9447 92.2591 14.2363 93.4102C13.528 94.5612 12.9967 96.0553 12.6426 97.8926C12.3105 99.7077 12.1445 101.899 12.1445 104.467V107.156C12.1445 109.724 12.2995 111.915 12.6094 113.73C12.9193 115.546 13.4173 117.029 14.1035 118.18C14.7897 119.331 15.6751 120.183 16.7598 120.736C17.8665 121.268 19.2168 121.533 20.8105 121.533C22.5814 121.533 24.0755 121.257 25.293 120.703C26.5104 120.128 27.4512 119.264 28.1152 118.113C28.7793 116.94 29.1335 115.446 29.1777 113.631ZM87.2168 104.865V106.824C87.2168 110.521 86.6966 113.841 85.6562 116.785C84.638 119.707 83.1882 122.208 81.3066 124.289C79.4251 126.348 77.2005 127.93 74.6328 129.037C72.0651 130.122 69.2318 130.664 66.1328 130.664C63.0117 130.664 60.1562 130.122 57.5664 129.037C54.9987 127.93 52.763 126.348 50.8594 124.289C48.9779 122.208 47.5169 119.707 46.4766 116.785C45.4583 113.841 44.9492 110.521 44.9492 106.824V104.865C44.9492 101.169 45.4583 97.8483 46.4766 94.9043C47.5169 91.9603 48.9668 89.459 50.8262 87.4004C52.7077 85.3197 54.9323 83.737 57.5 82.6523C60.0898 81.5456 62.9453 80.9922 66.0664 80.9922C69.1654 80.9922 71.9987 81.5456 74.5664 82.6523C77.1562 83.737 79.3919 85.3197 81.2734 87.4004C83.1549 89.459 84.6159 91.9603 85.6562 94.9043C86.6966 97.8483 87.2168 101.169 87.2168 104.865ZM75.3965 106.824V104.799C75.3965 102.408 75.1862 100.305 74.7656 98.4902C74.3672 96.653 73.7695 95.1146 72.9727 93.875C72.1758 92.6354 71.1908 91.7057 70.0176 91.0859C68.8665 90.444 67.5495 90.123 66.0664 90.123C64.5169 90.123 63.1667 90.444 62.0156 91.0859C60.8646 91.7057 59.9017 92.6354 59.127 93.875C58.3522 95.1146 57.7656 96.653 57.3672 98.4902C56.9909 100.305 56.8027 102.408 56.8027 104.799V106.824C56.8027 109.193 56.9909 111.296 57.3672 113.133C57.7656 114.948 58.3522 116.486 59.127 117.748C59.9238 119.01 60.8978 119.962 62.0488 120.604C63.222 121.245 64.5833 121.566 66.1328 121.566C67.6159 121.566 68.9329 121.245 70.084 120.604C71.235 119.962 72.1979 119.01 72.9727 117.748C73.7695 116.486 74.3672 114.948 74.7656 113.133C75.1862 111.296 75.3965 109.193 75.3965 106.824ZM104.914 81.6562V130H93.2598V81.6562H104.914ZM123.707 101.777V110.742H101.594V101.777H123.707ZM125.6 81.6562V90.6543H101.594V81.6562H125.6ZM142.102 81.6562V130H130.447V81.6562H142.102ZM160.895 101.777V110.742H138.781V101.777H160.895ZM162.787 81.6562V90.6543H138.781V81.6562H162.787ZM200.904 121.035V130H175.139V121.035H200.904ZM179.289 81.6562V130H167.635V81.6562H179.289ZM197.584 100.848V109.514H175.139V100.848H197.584ZM201.004 81.6562V90.6543H175.139V81.6562H201.004ZM238.955 121.035V130H213.189V121.035H238.955ZM217.34 81.6562V130H205.686V81.6562H217.34ZM235.635 100.848V109.514H213.189V100.848H235.635ZM239.055 81.6562V90.6543H213.189V81.6562H239.055Z" fill="#D3AE64"/>
</svg>
