<svg width="349" height="35" viewBox="0 0 349 35" fill="none" xmlns="http://www.w3.org/2000/svg">
<path d="M0.0900001 1.92H13.162V4.865H3.32V12.959H12.497V15.885H3.32V27H0.0900001V1.92ZM20.537 27H17.25V11.401H20.537V14.099H20.442C20.5053 13.7697 20.7396 13.358 21.145 12.864C21.5503 12.37 22.1076 11.9267 22.817 11.534C23.5263 11.1413 24.375 10.945 25.363 10.945C26.085 10.945 26.7183 11.0463 27.263 11.249C27.8203 11.439 28.213 11.629 28.441 11.819L27.092 14.555C26.9146 14.3777 26.6043 14.2003 26.161 14.023C25.7176 13.833 25.1666 13.738 24.508 13.738C23.672 13.738 22.9563 13.9977 22.361 14.517C21.7656 15.0363 21.3096 15.6633 20.993 16.398C20.689 17.12 20.537 17.7913 20.537 18.412V27ZM32.3101 19.875C32.3228 20.8123 32.5255 21.6673 32.9181 22.44C33.3108 23.2127 33.8935 23.827 34.6661 24.283C35.4515 24.739 36.4141 24.967 37.5541 24.967C38.5168 24.967 39.3338 24.8277 40.0051 24.549C40.6891 24.2577 41.2465 23.9157 41.6771 23.523C42.1078 23.1177 42.4181 22.7567 42.6081 22.44L44.2231 24.435C43.8051 25.043 43.2921 25.575 42.6841 26.031C42.0888 26.487 41.3605 26.8353 40.4991 27.076C39.6378 27.3293 38.5865 27.456 37.3451 27.456C35.6731 27.456 34.2228 27.1013 32.9941 26.392C31.7781 25.67 30.8408 24.6757 30.1821 23.409C29.5235 22.1297 29.1941 20.6667 29.1941 19.02C29.1941 17.5 29.5045 16.132 30.1251 14.916C30.7458 13.6873 31.6451 12.7183 32.8231 12.009C34.0138 11.2997 35.4451 10.945 37.1171 10.945C38.6498 10.945 39.9798 11.268 41.1071 11.914C42.2471 12.5473 43.1275 13.4467 43.7481 14.612C44.3815 15.7773 44.6981 17.1707 44.6981 18.792C44.6981 18.8933 44.6918 19.077 44.6791 19.343C44.6665 19.5963 44.6538 19.7737 44.6411 19.875H32.3101ZM41.5441 17.386C41.5315 16.8667 41.3795 16.2967 41.0881 15.676C40.8095 15.0553 40.3535 14.5233 39.7201 14.08C39.0868 13.6367 38.2318 13.415 37.1551 13.415C36.0405 13.415 35.1411 13.6303 34.4571 14.061C33.7858 14.4917 33.2918 15.0173 32.9751 15.638C32.6585 16.246 32.4748 16.8287 32.4241 17.386H41.5441ZM54.2005 10.945C55.0112 10.945 55.7648 11.0273 56.4615 11.192C57.1708 11.3567 57.7788 11.553 58.2855 11.781C58.8048 12.009 59.1722 12.2117 59.3875 12.389L58.0765 14.479C57.8232 14.251 57.3672 13.9977 56.7085 13.719C56.0498 13.4277 55.3152 13.282 54.5045 13.282C53.6178 13.282 52.8642 13.4593 52.2435 13.814C51.6228 14.156 51.3125 14.6563 51.3125 15.315C51.3125 15.9737 51.6292 16.4993 52.2625 16.892C52.9085 17.272 53.7698 17.5887 54.8465 17.842C55.7078 18.0447 56.5122 18.317 57.2595 18.659C58.0195 19.001 58.6338 19.476 59.1025 20.084C59.5712 20.6793 59.8055 21.4773 59.8055 22.478C59.8055 23.39 59.6155 24.169 59.2355 24.815C58.8555 25.4483 58.3425 25.9613 57.6965 26.354C57.0505 26.734 56.3285 27.0127 55.5305 27.19C54.7325 27.3673 53.9218 27.456 53.0985 27.456C52.1358 27.456 51.2682 27.3547 50.4955 27.152C49.7228 26.962 49.0705 26.734 48.5385 26.468C48.0192 26.1893 47.6392 25.9487 47.3985 25.746L48.7095 23.39C49.0388 23.7067 49.5772 24.0423 50.3245 24.397C51.0845 24.7517 51.9458 24.929 52.9085 24.929C53.9725 24.929 54.8338 24.7073 55.4925 24.264C56.1512 23.808 56.4805 23.219 56.4805 22.497C56.4805 21.9523 56.3222 21.5153 56.0055 21.186C55.6888 20.8567 55.2645 20.5907 54.7325 20.388C54.2005 20.1853 53.6178 20.008 52.9845 19.856C52.3765 19.7167 51.7812 19.533 51.1985 19.305C50.6285 19.077 50.1028 18.7857 49.6215 18.431C49.1528 18.0637 48.7792 17.6203 48.5005 17.101C48.2218 16.569 48.0825 15.9483 48.0825 15.239C48.0825 14.3397 48.3675 13.5733 48.9375 12.94C49.5075 12.294 50.2548 11.8 51.1795 11.458C52.1042 11.116 53.1112 10.945 54.2005 10.945ZM72.4726 10.945C73.4986 10.945 74.4929 11.1603 75.4556 11.591C76.4309 12.0217 77.2289 12.7057 77.8496 13.643C78.4829 14.5677 78.7996 15.7773 78.7996 17.272V27H75.4556V17.918C75.4556 16.3727 75.1009 15.2517 74.3916 14.555C73.6949 13.8457 72.7766 13.491 71.6366 13.491C70.8766 13.491 70.1482 13.7063 69.4516 14.137C68.7549 14.555 68.1786 15.1377 67.7226 15.885C67.2792 16.6197 67.0576 17.4557 67.0576 18.393V27H63.7136V0.855999H67.0576V14.175C67.1716 13.7443 67.4756 13.2757 67.9696 12.769C68.4762 12.2623 69.1222 11.8317 69.9076 11.477C70.6929 11.1223 71.5479 10.945 72.4726 10.945ZM100.084 24.72C101.072 24.72 101.87 24.5617 102.478 24.245C103.086 23.9283 103.466 23.7003 103.618 23.561L105.233 25.936C105.107 26.05 104.803 26.2337 104.321 26.487C103.853 26.7277 103.245 26.9493 102.497 27.152C101.763 27.3547 100.927 27.456 99.9893 27.456C98.558 27.456 97.228 27.1393 95.9993 26.506C94.7707 25.86 93.7763 24.9227 93.0163 23.694C92.269 22.4653 91.8953 20.9643 91.8953 19.191C91.8953 17.405 92.269 15.904 93.0163 14.688C93.7763 13.4593 94.7707 12.5283 95.9993 11.895C97.228 11.2617 98.558 10.945 99.9893 10.945C100.914 10.945 101.737 11.059 102.459 11.287C103.181 11.5023 103.777 11.743 104.245 12.009C104.714 12.275 105.024 12.4777 105.176 12.617L103.542 14.992C103.441 14.8907 103.245 14.7387 102.953 14.536C102.675 14.3207 102.295 14.1243 101.813 13.947C101.332 13.7697 100.756 13.681 100.084 13.681C99.2737 13.681 98.482 13.9027 97.7093 14.346C96.9493 14.7767 96.3223 15.4037 95.8283 16.227C95.3343 17.0503 95.0873 18.0383 95.0873 19.191C95.0873 20.3437 95.3343 21.338 95.8283 22.174C96.3223 22.9973 96.9493 23.6307 97.7093 24.074C98.482 24.5047 99.2737 24.72 100.084 24.72ZM115.723 27.456C114.114 27.456 112.683 27.095 111.429 26.373C110.187 25.651 109.212 24.6757 108.503 23.447C107.793 22.2057 107.439 20.806 107.439 19.248C107.439 17.69 107.793 16.284 108.503 15.03C109.212 13.776 110.187 12.7817 111.429 12.047C112.683 11.3123 114.114 10.945 115.723 10.945C117.319 10.945 118.731 11.3123 119.96 12.047C121.201 12.7817 122.17 13.776 122.867 15.03C123.563 16.284 123.912 17.69 123.912 19.248C123.912 20.806 123.563 22.2057 122.867 23.447C122.17 24.6757 121.201 25.651 119.96 26.373C118.731 27.095 117.319 27.456 115.723 27.456ZM115.723 24.625C116.736 24.625 117.616 24.3907 118.364 23.922C119.124 23.4533 119.713 22.8137 120.131 22.003C120.549 21.1797 120.758 20.255 120.758 19.229C120.758 18.203 120.549 17.2783 120.131 16.455C119.713 15.6317 119.124 14.9793 118.364 14.498C117.616 14.0167 116.736 13.776 115.723 13.776C114.697 13.776 113.804 14.0167 113.044 14.498C112.284 14.9793 111.688 15.6317 111.258 16.455C110.84 17.2783 110.631 18.203 110.631 19.229C110.631 20.255 110.84 21.1797 111.258 22.003C111.688 22.8137 112.284 23.4533 113.044 23.922C113.804 24.3907 114.697 24.625 115.723 24.625ZM126.114 11.401H129.306V6.974C129.306 5.39067 129.578 4.11767 130.123 3.155C130.68 2.19233 131.383 1.49567 132.232 1.065C133.093 0.621665 133.974 0.399998 134.873 0.399998C135.962 0.399998 136.798 0.551998 137.381 0.855999C137.976 1.16 138.331 1.36266 138.445 1.464L137.115 3.991C137.052 3.915 136.855 3.77567 136.526 3.573C136.197 3.37033 135.747 3.269 135.177 3.269C134.759 3.269 134.354 3.37033 133.961 3.573C133.568 3.77567 133.239 4.16833 132.973 4.751C132.707 5.33367 132.574 6.20133 132.574 7.354V11.401H137.02V14.232H132.574V27H129.306V14.232H126.114V11.401ZM138.35 11.401H141.542V6.974C141.542 5.39067 141.814 4.11767 142.359 3.155C142.916 2.19233 143.619 1.49567 144.468 1.065C145.329 0.621665 146.21 0.399998 147.109 0.399998C148.198 0.399998 149.034 0.551998 149.617 0.855999C150.212 1.16 150.567 1.36266 150.681 1.464L149.351 3.991C149.288 3.915 149.091 3.77567 148.762 3.573C148.433 3.37033 147.983 3.269 147.413 3.269C146.995 3.269 146.59 3.37033 146.197 3.573C145.804 3.77567 145.475 4.16833 145.209 4.751C144.943 5.33367 144.81 6.20133 144.81 7.354V11.401H149.256V14.232H144.81V27H141.542V14.232H138.35V11.401ZM154.326 19.875C154.338 20.8123 154.541 21.6673 154.934 22.44C155.326 23.2127 155.909 23.827 156.682 24.283C157.467 24.739 158.43 24.967 159.57 24.967C160.532 24.967 161.349 24.8277 162.021 24.549C162.705 24.2577 163.262 23.9157 163.693 23.523C164.123 23.1177 164.434 22.7567 164.624 22.44L166.239 24.435C165.821 25.043 165.308 25.575 164.7 26.031C164.104 26.487 163.376 26.8353 162.515 27.076C161.653 27.3293 160.602 27.456 159.361 27.456C157.689 27.456 156.238 27.1013 155.01 26.392C153.794 25.67 152.856 24.6757 152.198 23.409C151.539 22.1297 151.21 20.6667 151.21 19.02C151.21 17.5 151.52 16.132 152.141 14.916C152.761 13.6873 153.661 12.7183 154.839 12.009C156.029 11.2997 157.461 10.945 159.133 10.945C160.665 10.945 161.995 11.268 163.123 11.914C164.263 12.5473 165.143 13.4467 165.764 14.612C166.397 15.7773 166.714 17.1707 166.714 18.792C166.714 18.8933 166.707 19.077 166.695 19.343C166.682 19.5963 166.669 19.7737 166.657 19.875H154.326ZM163.56 17.386C163.547 16.8667 163.395 16.2967 163.104 15.676C162.825 15.0553 162.369 14.5233 161.736 14.08C161.102 13.6367 160.247 13.415 159.171 13.415C158.056 13.415 157.157 13.6303 156.473 14.061C155.801 14.4917 155.307 15.0173 154.991 15.638C154.674 16.246 154.49 16.8287 154.44 17.386H163.56ZM172.435 19.875C172.448 20.8123 172.65 21.6673 173.043 22.44C173.436 23.2127 174.018 23.827 174.791 24.283C175.576 24.739 176.539 24.967 177.679 24.967C178.642 24.967 179.459 24.8277 180.13 24.549C180.814 24.2577 181.371 23.9157 181.802 23.523C182.233 23.1177 182.543 22.7567 182.733 22.44L184.348 24.435C183.93 25.043 183.417 25.575 182.809 26.031C182.214 26.487 181.485 26.8353 180.624 27.076C179.763 27.3293 178.711 27.456 177.47 27.456C175.798 27.456 174.348 27.1013 173.119 26.392C171.903 25.67 170.966 24.6757 170.307 23.409C169.648 22.1297 169.319 20.6667 169.319 19.02C169.319 17.5 169.629 16.132 170.25 14.916C170.871 13.6873 171.77 12.7183 172.948 12.009C174.139 11.2997 175.57 10.945 177.242 10.945C178.775 10.945 180.105 11.268 181.232 11.914C182.372 12.5473 183.252 13.4467 183.873 14.612C184.506 15.7773 184.823 17.1707 184.823 18.792C184.823 18.8933 184.817 19.077 184.804 19.343C184.791 19.5963 184.779 19.7737 184.766 19.875H172.435ZM181.669 17.386C181.656 16.8667 181.504 16.2967 181.213 15.676C180.934 15.0553 180.478 14.5233 179.845 14.08C179.212 13.6367 178.357 13.415 177.28 13.415C176.165 13.415 175.266 13.6303 174.582 14.061C173.911 14.4917 173.417 15.0173 173.1 15.638C172.783 16.246 172.6 16.8287 172.549 17.386H181.669ZM200.007 19.875C200.02 20.8123 200.223 21.6673 200.615 22.44C201.008 23.2127 201.591 23.827 202.363 24.283C203.149 24.739 204.111 24.967 205.251 24.967C206.214 24.967 207.031 24.8277 207.702 24.549C208.386 24.2577 208.944 23.9157 209.374 23.523C209.805 23.1177 210.115 22.7567 210.305 22.44L211.92 24.435C211.502 25.043 210.989 25.575 210.381 26.031C209.786 26.487 209.058 26.8353 208.196 27.076C207.335 27.3293 206.284 27.456 205.042 27.456C203.37 27.456 201.92 27.1013 200.691 26.392C199.475 25.67 198.538 24.6757 197.879 23.409C197.221 22.1297 196.891 20.6667 196.891 19.02C196.891 17.5 197.202 16.132 197.822 14.916C198.443 13.6873 199.342 12.7183 200.52 12.009C201.711 11.2997 203.142 10.945 204.814 10.945C206.347 10.945 207.677 11.268 208.804 11.914C209.944 12.5473 210.825 13.4467 211.445 14.612C212.079 15.7773 212.395 17.1707 212.395 18.792C212.395 18.8933 212.389 19.077 212.376 19.343C212.364 19.5963 212.351 19.7737 212.338 19.875H200.007ZM209.241 17.386C209.229 16.8667 209.077 16.2967 208.785 15.676C208.507 15.0553 208.051 14.5233 207.417 14.08C206.784 13.6367 205.929 13.415 204.852 13.415C203.738 13.415 202.838 13.6303 202.154 14.061C201.483 14.4917 200.989 15.0173 200.672 15.638C200.356 16.246 200.172 16.8287 200.121 17.386H209.241ZM214.488 11.401H218.041L223.133 23.941L228.225 11.401H231.759L225.09 27H221.195L214.488 11.401ZM236.931 19.875C236.944 20.8123 237.147 21.6673 237.539 22.44C237.932 23.2127 238.515 23.827 239.287 24.283C240.073 24.739 241.035 24.967 242.175 24.967C243.138 24.967 243.955 24.8277 244.626 24.549C245.31 24.2577 245.868 23.9157 246.298 23.523C246.729 23.1177 247.039 22.7567 247.229 22.44L248.844 24.435C248.426 25.043 247.913 25.575 247.305 26.031C246.71 26.487 245.982 26.8353 245.12 27.076C244.259 27.3293 243.208 27.456 241.966 27.456C240.294 27.456 238.844 27.1013 237.615 26.392C236.399 25.67 235.462 24.6757 234.803 23.409C234.145 22.1297 233.815 20.6667 233.815 19.02C233.815 17.5 234.126 16.132 234.746 14.916C235.367 13.6873 236.266 12.7183 237.444 12.009C238.635 11.2997 240.066 10.945 241.738 10.945C243.271 10.945 244.601 11.268 245.728 11.914C246.868 12.5473 247.749 13.4467 248.369 14.612C249.003 15.7773 249.319 17.1707 249.319 18.792C249.319 18.8933 249.313 19.077 249.3 19.343C249.288 19.5963 249.275 19.7737 249.262 19.875H236.931ZM246.165 17.386C246.153 16.8667 246.001 16.2967 245.709 15.676C245.431 15.0553 244.975 14.5233 244.341 14.08C243.708 13.6367 242.853 13.415 241.776 13.415C240.662 13.415 239.762 13.6303 239.078 14.061C238.407 14.4917 237.913 15.0173 237.596 15.638C237.28 16.246 237.096 16.8287 237.045 17.386H246.165ZM256.219 27H252.932V11.401H256.219V14.099H256.124C256.187 13.7697 256.421 13.358 256.827 12.864C257.232 12.37 257.789 11.9267 258.499 11.534C259.208 11.1413 260.057 10.945 261.045 10.945C261.767 10.945 262.4 11.0463 262.945 11.249C263.502 11.439 263.895 11.629 264.123 11.819L262.774 14.555C262.596 14.3777 262.286 14.2003 261.843 14.023C261.399 13.833 260.848 13.738 260.19 13.738C259.354 13.738 258.638 13.9977 258.043 14.517C257.447 15.0363 256.991 15.6633 256.675 16.398C256.371 17.12 256.219 17.7913 256.219 18.412V27ZM272.734 23.979L277.997 11.401H281.303L270.777 34.904H267.433L270.967 27L264.545 11.401H267.908L272.734 23.979ZM300.148 27.456C298.717 27.456 297.431 27.114 296.291 26.43C295.164 25.746 294.271 24.7897 293.612 23.561C292.966 22.3197 292.643 20.8693 292.643 19.21C292.643 17.5507 292.966 16.1067 293.612 14.878C294.271 13.6367 295.164 12.674 296.291 11.99C297.431 11.2933 298.717 10.945 300.148 10.945C301.301 10.945 302.314 11.1477 303.188 11.553C304.062 11.9457 304.759 12.408 305.278 12.94C305.798 13.472 306.095 13.9343 306.171 14.327V0.855999H309.496V27H306.228V23.96C306.089 24.3907 305.741 24.8783 305.183 25.423C304.639 25.9677 303.936 26.4427 303.074 26.848C302.213 27.2533 301.238 27.456 300.148 27.456ZM300.908 24.72C301.871 24.72 302.751 24.492 303.549 24.036C304.347 23.58 304.981 22.9403 305.449 22.117C305.931 21.281 306.171 20.312 306.171 19.21C306.171 18.108 305.931 17.1453 305.449 16.322C304.981 15.486 304.347 14.84 303.549 14.384C302.751 13.9153 301.871 13.681 300.908 13.681C300.022 13.681 299.198 13.909 298.438 14.365C297.678 14.821 297.064 15.4607 296.595 16.284C296.139 17.1073 295.911 18.0827 295.911 19.21C295.911 20.3373 296.139 21.3127 296.595 22.136C297.064 22.9593 297.678 23.599 298.438 24.055C299.198 24.4983 300.022 24.72 300.908 24.72ZM325.738 27V23.96C325.637 24.2767 325.339 24.7137 324.845 25.271C324.364 25.8283 323.699 26.335 322.85 26.791C322.014 27.2343 321.026 27.456 319.886 27.456C318.442 27.456 317.131 27.114 315.953 26.43C314.788 25.746 313.857 24.7897 313.16 23.561C312.476 22.3197 312.134 20.8693 312.134 19.21C312.134 17.5507 312.476 16.1067 313.16 14.878C313.857 13.6367 314.788 12.674 315.953 11.99C317.131 11.2933 318.442 10.945 319.886 10.945C321.013 10.945 321.989 11.1477 322.812 11.553C323.648 11.9583 324.313 12.427 324.807 12.959C325.314 13.491 325.611 13.947 325.7 14.327V11.401H328.968V27H325.738ZM315.402 19.21C315.402 20.3373 315.649 21.3127 316.143 22.136C316.637 22.9593 317.277 23.599 318.062 24.055C318.86 24.4983 319.709 24.72 320.608 24.72C321.571 24.72 322.432 24.492 323.192 24.036C323.952 23.58 324.554 22.9403 324.997 22.117C325.44 21.281 325.662 20.312 325.662 19.21C325.662 18.108 325.44 17.1453 324.997 16.322C324.554 15.486 323.952 14.84 323.192 14.384C322.432 13.9153 321.571 13.681 320.608 13.681C319.709 13.681 318.86 13.909 318.062 14.365C317.277 14.821 316.637 15.4607 316.143 16.284C315.649 17.1073 315.402 18.0827 315.402 19.21ZM339.865 23.979L345.128 11.401H348.434L337.908 34.904H334.564L338.098 27L331.676 11.401H335.039L339.865 23.979Z" fill="black"/>
</svg>
