<svg width="156" height="85" viewBox="0 0 156 85" fill="none" xmlns="http://www.w3.org/2000/svg">
<path d="M9.958 5.71H0.702V1.68H23.686V5.71H14.43V36H9.958V5.71ZM27.0953 26.25C27.1126 27.5327 27.3899 28.7027 27.9273 29.76C28.4646 30.8173 29.2619 31.658 30.3193 32.282C31.3939 32.906 32.7113 33.218 34.2713 33.218C35.5886 33.218 36.7066 33.0273 37.6253 32.646C38.5613 32.2473 39.3239 31.7793 39.9133 31.242C40.5026 30.6873 40.9273 30.1933 41.1873 29.76L43.3973 32.49C42.8253 33.322 42.1233 34.05 41.2913 34.674C40.4766 35.298 39.4799 35.7747 38.3013 36.104C37.1226 36.4507 35.6839 36.624 33.9853 36.624C31.6973 36.624 29.7126 36.1387 28.0312 35.168C26.3673 34.18 25.0846 32.8193 24.1833 31.086C23.2819 29.3353 22.8313 27.3333 22.8313 25.08C22.8313 23 23.2559 21.128 24.1053 19.464C24.9546 17.7827 26.1853 16.4567 27.7973 15.486C29.4266 14.5153 31.3853 14.03 33.6733 14.03C35.7706 14.03 37.5906 14.472 39.1333 15.356C40.6933 16.2227 41.8979 17.4533 42.7473 19.048C43.6139 20.6427 44.0473 22.5493 44.0473 24.768C44.0473 24.9067 44.0386 25.158 44.0213 25.522C44.0039 25.8687 43.9866 26.1113 43.9693 26.25H27.0953ZM39.7313 22.844C39.7139 22.1333 39.5059 21.3533 39.1073 20.504C38.7259 19.6547 38.1019 18.9267 37.2353 18.32C36.3686 17.7133 35.1986 17.41 33.7253 17.41C32.1999 17.41 30.9693 17.7047 30.0333 18.294C29.1146 18.8833 28.4386 19.6027 28.0053 20.452C27.5719 21.284 27.3206 22.0813 27.2513 22.844H39.7313ZM58.4545 36.624C56.4958 36.624 54.7365 36.156 53.1765 35.22C51.6338 34.284 50.4118 32.9753 49.5105 31.294C48.6265 29.5953 48.1845 27.6107 48.1845 25.34C48.1845 23.0693 48.6265 21.0933 49.5105 19.412C50.4118 17.7133 51.6338 16.396 53.1765 15.46C54.7365 14.5067 56.4958 14.03 58.4545 14.03C60.0318 14.03 61.4185 14.3073 62.6145 14.862C63.8105 15.3993 64.7638 16.032 65.4745 16.76C66.1852 17.488 66.5925 18.1207 66.6965 18.658V0.223999H71.2465V36H66.7745V31.84C66.5838 32.4293 66.1072 33.0967 65.3445 33.842C64.5992 34.5873 63.6372 35.2373 62.4585 35.792C61.2798 36.3467 59.9452 36.624 58.4545 36.624ZM59.4945 32.88C60.8118 32.88 62.0165 32.568 63.1085 31.944C64.2005 31.32 65.0672 30.4447 65.7085 29.318C66.3672 28.174 66.6965 26.848 66.6965 25.34C66.6965 23.832 66.3672 22.5147 65.7085 21.388C65.0672 20.244 64.2005 19.36 63.1085 18.736C62.0165 18.0947 60.8118 17.774 59.4945 17.774C58.2812 17.774 57.1545 18.086 56.1145 18.71C55.0745 19.334 54.2338 20.2093 53.5925 21.336C52.9685 22.4627 52.6565 23.7973 52.6565 25.34C52.6565 26.8827 52.9685 28.2173 53.5925 29.344C54.2338 30.4707 55.0745 31.346 56.1145 31.97C57.1545 32.5767 58.2812 32.88 59.4945 32.88ZM85.724 36.624C83.7654 36.624 82.006 36.156 80.446 35.22C78.9034 34.284 77.6814 32.9753 76.78 31.294C75.896 29.5953 75.454 27.6107 75.454 25.34C75.454 23.0693 75.896 21.0933 76.78 19.412C77.6814 17.7133 78.9034 16.396 80.446 15.46C82.006 14.5067 83.7654 14.03 85.724 14.03C87.3014 14.03 88.688 14.3073 89.884 14.862C91.08 15.3993 92.0334 16.032 92.744 16.76C93.4547 17.488 93.862 18.1207 93.966 18.658V0.223999H98.516V36H94.044V31.84C93.8534 32.4293 93.3767 33.0967 92.614 33.842C91.8687 34.5873 90.9067 35.2373 89.728 35.792C88.5494 36.3467 87.2147 36.624 85.724 36.624ZM86.764 32.88C88.0814 32.88 89.286 32.568 90.378 31.944C91.47 31.32 92.3367 30.4447 92.978 29.318C93.6367 28.174 93.966 26.848 93.966 25.34C93.966 23.832 93.6367 22.5147 92.978 21.388C92.3367 20.244 91.47 19.36 90.378 18.736C89.286 18.0947 88.0814 17.774 86.764 17.774C85.5507 17.774 84.424 18.086 83.384 18.71C82.344 19.334 81.5034 20.2093 80.862 21.336C80.238 22.4627 79.926 23.7973 79.926 25.34C79.926 26.8827 80.238 28.2173 80.862 29.344C81.5034 30.4707 82.344 31.346 83.384 31.97C84.424 32.5767 85.5507 32.88 86.764 32.88ZM112.448 31.866L119.65 14.654H124.174L109.77 46.816H105.194L110.03 36L101.242 14.654H105.844L112.448 31.866ZM128.771 14.394L127.393 12.834C127.826 12.6607 128.312 12.34 128.849 11.872C129.404 11.3867 129.88 10.8407 130.279 10.234C130.695 9.61 130.912 8.99467 130.929 8.388C130.79 8.57867 130.522 8.752 130.123 8.908C129.742 9.04667 129.343 9.116 128.927 9.116C128.147 9.116 127.445 8.83 126.821 8.258C126.214 7.686 125.911 6.88867 125.911 5.866C125.911 4.65266 126.284 3.69066 127.029 2.98C127.792 2.26933 128.745 1.914 129.889 1.914C131.016 1.914 131.96 2.31266 132.723 3.11C133.486 3.89 133.867 5.01667 133.867 6.49C133.867 7.842 133.607 9.038 133.087 10.078C132.567 11.118 131.917 12.002 131.137 12.73C130.357 13.4407 129.568 13.9953 128.771 14.394ZM147.34 14.03C148.449 14.03 149.48 14.1427 150.434 14.368C151.404 14.5933 152.236 14.862 152.93 15.174C153.64 15.486 154.143 15.7633 154.438 16.006L152.644 18.866C152.297 18.554 151.673 18.2073 150.772 17.826C149.87 17.4273 148.865 17.228 147.756 17.228C146.542 17.228 145.511 17.4707 144.662 17.956C143.812 18.424 143.388 19.1087 143.388 20.01C143.388 20.9113 143.821 21.6307 144.688 22.168C145.572 22.688 146.75 23.1213 148.224 23.468C149.402 23.7453 150.503 24.118 151.526 24.586C152.566 25.054 153.406 25.704 154.048 26.536C154.689 27.3507 155.01 28.4427 155.01 29.812C155.01 31.06 154.75 32.126 154.23 33.01C153.71 33.8767 153.008 34.5787 152.124 35.116C151.24 35.636 150.252 36.0173 149.16 36.26C148.068 36.5027 146.958 36.624 145.832 36.624C144.514 36.624 143.327 36.4853 142.27 36.208C141.212 35.948 140.32 35.636 139.592 35.272C138.881 34.8907 138.361 34.5613 138.032 34.284L139.826 31.06C140.276 31.4933 141.013 31.9527 142.036 32.438C143.076 32.9233 144.254 33.166 145.572 33.166C147.028 33.166 148.206 32.8627 149.108 32.256C150.009 31.632 150.46 30.826 150.46 29.838C150.46 29.0927 150.243 28.4947 149.81 28.044C149.376 27.5933 148.796 27.2293 148.068 26.952C147.34 26.6747 146.542 26.432 145.676 26.224C144.844 26.0333 144.029 25.782 143.232 25.47C142.452 25.158 141.732 24.7593 141.074 24.274C140.432 23.7713 139.921 23.1647 139.54 22.454C139.158 21.726 138.968 20.8767 138.968 19.906C138.968 18.6753 139.358 17.6267 140.138 16.76C140.918 15.876 141.94 15.2 143.206 14.732C144.471 14.264 145.849 14.03 147.34 14.03Z" fill="black"/>
<path d="M19.526 80.23C21.658 80.23 23.504 79.9353 25.064 79.346C26.6413 78.7567 27.7593 78.1847 28.418 77.63L30.368 81.452C29.588 82.1453 28.2273 82.8473 26.286 83.558C24.362 84.2687 22.048 84.624 19.344 84.624C16.8133 84.624 14.4647 84.1733 12.298 83.272C10.1313 82.3707 8.23333 81.114 6.604 79.502C4.992 77.89 3.72667 76.0093 2.808 73.86C1.90667 71.7107 1.456 69.388 1.456 66.892C1.456 64.396 1.90667 62.0647 2.808 59.898C3.70933 57.7313 4.966 55.842 6.578 54.23C8.20733 52.6007 10.1053 51.3353 12.272 50.434C14.456 49.5153 16.8133 49.056 19.344 49.056C22.048 49.056 24.362 49.4113 26.286 50.122C28.2273 50.8327 29.588 51.5347 30.368 52.228L28.418 56.05C27.7593 55.478 26.6413 54.906 25.064 54.334C23.504 53.7447 21.658 53.45 19.526 53.45C17.5847 53.45 15.808 53.7793 14.196 54.438C12.584 55.0967 11.18 56.0327 9.984 57.246C8.80533 58.442 7.88667 59.8547 7.228 61.484C6.58667 63.1133 6.266 64.89 6.266 66.814C6.266 68.7553 6.58667 70.5493 7.228 72.196C7.88667 73.8253 8.80533 75.2467 9.984 76.46C11.18 77.656 12.584 78.5833 14.196 79.242C15.808 79.9007 17.5847 80.23 19.526 80.23ZM45.4655 84.624C43.2641 84.624 41.3055 84.13 39.5895 83.142C37.8908 82.154 36.5561 80.8193 35.5855 79.138C34.6148 77.4393 34.1295 75.524 34.1295 73.392C34.1295 71.26 34.6148 69.336 35.5855 67.62C36.5561 65.904 37.8908 64.5433 39.5895 63.538C41.3055 62.5327 43.2641 62.03 45.4655 62.03C47.6495 62.03 49.5821 62.5327 51.2635 63.538C52.9621 64.5433 54.2881 65.904 55.2415 67.62C56.1948 69.336 56.6715 71.26 56.6715 73.392C56.6715 75.524 56.1948 77.4393 55.2415 79.138C54.2881 80.8193 52.9621 82.154 51.2635 83.142C49.5821 84.13 47.6495 84.624 45.4655 84.624ZM45.4655 80.75C46.8521 80.75 48.0568 80.4293 49.0795 79.788C50.1195 79.1467 50.9255 78.2713 51.4975 77.162C52.0695 76.0353 52.3555 74.77 52.3555 73.366C52.3555 71.962 52.0695 70.6967 51.4975 69.57C50.9255 68.4433 50.1195 67.5507 49.0795 66.892C48.0568 66.2333 46.8521 65.904 45.4655 65.904C44.0615 65.904 42.8395 66.2333 41.7995 66.892C40.7595 67.5507 39.9448 68.4433 39.3555 69.57C38.7835 70.6967 38.4975 71.962 38.4975 73.366C38.4975 74.77 38.7835 76.0353 39.3555 77.162C39.9448 78.2713 40.7595 79.1467 41.7995 79.788C42.8395 80.4293 44.0615 80.75 45.4655 80.75ZM59.685 62.654H64.053V56.596C64.053 54.4293 64.4257 52.6873 65.171 51.37C65.9337 50.0527 66.8957 49.0993 68.057 48.51C69.2357 47.9033 70.4404 47.6 71.671 47.6C73.1617 47.6 74.3057 47.808 75.103 48.224C75.9177 48.64 76.403 48.9173 76.559 49.056L74.739 52.514C74.6524 52.41 74.3837 52.2193 73.933 51.942C73.4824 51.6647 72.867 51.526 72.087 51.526C71.515 51.526 70.9604 51.6647 70.423 51.942C69.8857 52.2193 69.435 52.7567 69.071 53.554C68.707 54.3513 68.525 55.5387 68.525 57.116V62.654H74.609V66.528H68.525V84H64.053V66.528H59.685V62.654ZM76.429 62.654H80.797V56.596C80.797 54.4293 81.1697 52.6873 81.915 51.37C82.6777 50.0527 83.6397 49.0993 84.801 48.51C85.9797 47.9033 87.1844 47.6 88.415 47.6C89.9057 47.6 91.0497 47.808 91.847 48.224C92.6617 48.64 93.147 48.9173 93.303 49.056L91.483 52.514C91.3964 52.41 91.1277 52.2193 90.677 51.942C90.2264 51.6647 89.611 51.526 88.831 51.526C88.259 51.526 87.7044 51.6647 87.167 51.942C86.6297 52.2193 86.179 52.7567 85.815 53.554C85.451 54.3513 85.269 55.5387 85.269 57.116V62.654H91.353V66.528H85.269V84H80.797V66.528H76.429V62.654ZM98.2906 74.25C98.3079 75.5327 98.5852 76.7027 99.1226 77.76C99.6599 78.8173 100.457 79.658 101.515 80.282C102.589 80.906 103.907 81.218 105.467 81.218C106.784 81.218 107.902 81.0273 108.821 80.646C109.757 80.2473 110.519 79.7793 111.109 79.242C111.698 78.6873 112.123 78.1933 112.383 77.76L114.593 80.49C114.021 81.322 113.319 82.05 112.487 82.674C111.672 83.298 110.675 83.7747 109.497 84.104C108.318 84.4507 106.879 84.624 105.181 84.624C102.893 84.624 100.908 84.1387 99.2266 83.168C97.5626 82.18 96.2799 80.8193 95.3786 79.086C94.4772 77.3353 94.0266 75.3333 94.0266 73.08C94.0266 71 94.4512 69.128 95.3006 67.464C96.1499 65.7827 97.3806 64.4567 98.9926 63.486C100.622 62.5153 102.581 62.03 104.869 62.03C106.966 62.03 108.786 62.472 110.329 63.356C111.889 64.2227 113.093 65.4533 113.943 67.048C114.809 68.6427 115.243 70.5493 115.243 72.768C115.243 72.9067 115.234 73.158 115.217 73.522C115.199 73.8687 115.182 74.1113 115.165 74.25H98.2906ZM110.927 70.844C110.909 70.1333 110.701 69.3533 110.303 68.504C109.921 67.6547 109.297 66.9267 108.431 66.32C107.564 65.7133 106.394 65.41 104.921 65.41C103.395 65.41 102.165 65.7047 101.229 66.294C100.31 66.8833 99.6339 67.6027 99.2006 68.452C98.7672 69.284 98.5159 70.0813 98.4466 70.844H110.927ZM123.072 74.25C123.089 75.5327 123.366 76.7027 123.904 77.76C124.441 78.8173 125.238 79.658 126.296 80.282C127.37 80.906 128.688 81.218 130.248 81.218C131.565 81.218 132.683 81.0273 133.602 80.646C134.538 80.2473 135.3 79.7793 135.89 79.242C136.479 78.6873 136.904 78.1933 137.164 77.76L139.374 80.49C138.802 81.322 138.1 82.05 137.268 82.674C136.453 83.298 135.456 83.7747 134.278 84.104C133.099 84.4507 131.66 84.624 129.962 84.624C127.674 84.624 125.689 84.1387 124.008 83.168C122.344 82.18 121.061 80.8193 120.16 79.086C119.258 77.3353 118.808 75.3333 118.808 73.08C118.808 71 119.232 69.128 120.082 67.464C120.931 65.7827 122.162 64.4567 123.774 63.486C125.403 62.5153 127.362 62.03 129.65 62.03C131.747 62.03 133.567 62.472 135.11 63.356C136.67 64.2227 137.874 65.4533 138.724 67.048C139.59 68.6427 140.024 70.5493 140.024 72.768C140.024 72.9067 140.015 73.158 139.998 73.522C139.98 73.8687 139.963 74.1113 139.946 74.25H123.072ZM135.708 70.844C135.69 70.1333 135.482 69.3533 135.084 68.504C134.702 67.6547 134.078 66.9267 133.212 66.32C132.345 65.7133 131.175 65.41 129.702 65.41C128.176 65.41 126.946 65.7047 126.01 66.294C125.091 66.8833 124.415 67.6027 123.982 68.452C123.548 69.284 123.297 70.0813 123.228 70.844H135.708Z" fill="#D3AE64"/>
</svg>
